<svg xmlns="http://www.w3.org/2000/svg" width="244" height="44" viewBox="0 0 244 44"><style>.a{fill:#EC008B;}.b{fill:#231F1F;}.c{fill:#58595B;}</style><title>  Page 1</title><desc>  Created with Sketch.</desc><g fill="none"><path d="M2.1 6.1C2.1 6.1 4.2 4.8 4.2 4.8 4.3 4.9 4.9 7.8 4.9 7.9 5 8.1 11 4.1 11.1 4.3 11.2 4.4 6.3 10.3 6.4 10.4 6.6 10.8 14.8 5.1 15 5.4 15.2 5.7 7.4 13 7.5 13.2 7.8 13.7 24.8 2.5 25.1 3 25.5 3.6 4.8 17.4 5.2 18 5.6 18.6 29.2 3.3 29.5 3.9 29.9 4.5 5.4 20.6 5.7 21.1 6.2 21.9 37.8 1.6 38.2 2.3 38.7 3.1 5.8 23.5 6.3 24.2 6.7 25 43.4 1.3 44 2.4 44.7 3.5 4.5 27.4 5.1 28.4 5.7 29.4 43.3 4.7 43.9 5.9 44.6 7 4.8 30.4 5.5 31.6 6.2 32.8 52.9 2.6 53.6 3.7 54.2 4.8 4.7 34.1 5.3 35.1 6.1 36.5 55.3 4.1 56.2 5.7 57 7.2 3.8 37.5 4.6 39 5.5 40.6 65.3 2.2 66 3.4 66.9 4.9 4.7 40.6 5.4 41.9 6.4 43.6 68.4 3 69.5 4.9 70.3 6.3 14 38.3 14.9 39.8 15.8 41.4 73.5 3.5 74.5 5.4 75.3 6.7 17.6 40 18.3 41.3 19.1 42.6 78.9 4 79.9 5.7 80.8 7.3 23.3 40.3 24 41.5 24.8 42.9 88.3 2.2 89.2 3.7 90 5.1 29.5 39.8 30.3 41.2 31.4 43 95.8 0.9 96.9 2.7 97.8 4.3 36.8 39.2 37.6 40.5 38.5 42.1 102.1 1 103 2.6 103.8 3.9 40.5 40 41.5 41.7 42.3 43.1 105.3 2.2 106.4 4.1 107.2 5.5 51.9 37.6 52.5 38.7 53.4 40.2 111.4 2.2 112.5 4 113.2 5.2 55 38.9 55.8 40.3 56.8 42 119.1 1.8 119.9 3.2 120.8 4.8 63.9 37.1 64.7 38.5 65.5 39.9 122.5 3.3 123.3 4.6 124.2 6.1 66.9 38.7 67.8 40.2 68.7 41.9 128.5 2.9 129.4 4.5 130.4 6.2 72.8 39.1 73.5 40.3 74.3 41.8 138.4 0.4 139.4 2.2 140.4 3.9 80.3 38.2 81 39.4 81.8 40.8 142.6 2 143.4 3.3 144.1 4.5 84 39 84.9 40.6 85.7 41.9 145.3 3.8 146.1 5.2 146.8 6.6 91.6 38.2 92.5 39.7 93.2 40.9 153.8 1.9 154.8 3.6 155.5 4.9 93.9 40.2 94.8 41.7 95.6 43.1 157.2 3.7 158 5.2 158.9 6.7 105.3 37.3 106.1 38.6 106.8 39.9 168.2 0.4 169.2 2.1 170 3.6 107.8 39.1 108.7 40.6 109.7 42.3 171.4 2.5 172.2 3.8 173 5.3 113.2 39.1 114.1 40.9 115 42.4 175.1 3.3 176.1 5 177 6.6 121.8 38.2 122.6 39.4 123.6 41.2 184.2 1.7 185.1 3.2 185.8 4.4 129 37 129.9 38.6 130.7 40 189.1 2.3 190 3.9 190.7 5.2 131.1 39.5 131.9 40.9 132.7 42.2 192.7 3.9 193.5 5.2 194.4 6.9 138 39.1 138.8 40.4 139.7 42 199.9 2.9 200.8 4.5 201.5 5.7 146.3 37.5 147.2 38.9 148 40.3 204.6 3.2 205.6 5.1 206.4 6.3 151.8 37.8 152.6 39.2 153.5 40.7 215.1 0.7 216.1 2.5 217 4 154.4 39.6 155.2 41.1 156.1 42.6 220.6 1.3 221.4 2.8 222.3 4.3 165.3 37 166.1 38.3 167.1 40 224.9 2 225.9 3.7 226.7 5.1 171.1 37.2 171.8 38.4 172.6 39.8 229.4 2.9 230.4 4.5 231.3 6.1 174 38.6 174.8 40.1 175.7 41.7 236.3 2.5 237.2 4 238.2 5.8 177.2 40 178.1 41.6 178.9 43.1 239.5 3.9 240.4 5.6 241.2 6.9 188.9 36.9 189.7 38.4 190.3 39.5 235.7 10.2 236.4 11.3 237.1 12.6 191.8 39 192.5 40.2 193.1 41.3 239.5 11.6 240.1 12.7 240.8 13.9 195.7 40.5 196.2 41.5 196.9 42.6 239.5 15.1 240 16.1 240.6 17.1 206.3 38 206.7 38.8 207.2 39.7 237 20.1 237.5 21 237.9 21.7 211.4 38.7 211.7 39.3 212.2 40.2 237 23.8 237.4 24.5 237.8 25.2 214.1 40.6 214.5 41.2 214.8 41.7 240 25.8 240.3 26.3 240.6 26.8 219.4 40.9 219.8 41.6 220 41.9 241.1 28.8 241.3 29.1 241.5 29.6 226.7 40.4 227 40.8 227.2 41.1 237.7 34.3 237.8 34.6 237.9 34.7 236.3 38.7 236.4 38.8 236.5 38.9 241.8 35.5 241.9 35.7" style="stroke-linejoin:round;stroke-width:4;stroke:#FFF100"/><path d="M19.3 26.3C19.4 25.6 19.4 24.7 19.4 23.7 19.4 22.3 19.4 21.4 19.3 20.9 19.1 19.9 18.7 19.1 18 18.5 17.1 17.8 16.2 17.5 15.1 17.5 13.7 17.5 12.6 18 11.7 19.1 10.9 20.2 10.5 21.7 10.5 23.5 10.5 25.5 10.9 27 11.8 28.1 12.6 29.2 13.8 29.8 15.2 29.8 16.4 29.8 17.3 29.5 18 28.8 18.8 28.2 19.2 27.3 19.3 26.3M14.9 15.5C16.9 15.5 18.5 16.2 19.4 17.8L19.4 14.7C19.4 13.9 19.4 13.4 19.4 13.2 19.3 12.6 19 12.3 18.5 12.3 18.4 12.3 18.1 12.3 17.8 12.4 17.5 12.4 17.3 12.5 17.2 12.5 16.4 12.5 16 12.1 16 11.5 16 10.8 16.5 10.5 17.6 10.5 17.7 10.5 18 10.5 18.4 10.5 19.1 10.6 19.4 10.6 19.4 10.6 19.6 10.6 19.9 10.6 20.2 10.5 20.6 10.5 20.9 10.5 21 10.5 21.6 10.5 21.9 10.9 21.9 11.7L21.9 12C21.9 12.1 21.9 12.6 21.8 13.7 21.8 13.8 21.8 14.6 21.7 16 21.7 17 21.7 17.8 21.7 18.3L21.7 21.4 21.7 26.5C21.7 27.8 21.8 28.7 21.9 29 22 29.3 22.2 29.5 22.6 29.5 22.9 29.5 23.1 29.5 23.2 29.4 23.6 29.4 23.8 29.4 23.9 29.4 24.7 29.4 25.1 29.7 25.1 30.4 25.1 31.1 24.6 31.4 23.7 31.4 23.5 31.4 23.2 31.4 22.8 31.3 22.3 31.3 22 31.3 21.8 31.3 21.8 31.3 21.5 31.3 21.1 31.3 20.9 31.4 20.7 31.4 20.5 31.4 19.9 31.4 19.7 31.1 19.7 30.3L19.7 30.2 19.7 29.6C18.6 31.1 17 31.8 15 31.8 12.9 31.8 11.2 31.1 10 29.6 8.7 28 8.1 26.1 8.1 23.6 8.1 21.1 8.7 19.2 9.9 17.7 11.2 16.2 12.8 15.5 14.9 15.5" fill="#DA3793"/><path d="M47.1 19.6L50.7 29.2 54.2 19.6C54.4 19.1 54.5 18.7 54.5 18.5 54.5 18.1 54.2 17.8 53.8 17.8 53.7 17.8 53.4 17.9 53.1 17.9 52.8 18 52.5 18 52.4 18 51.7 18 51.4 17.7 51.4 17 51.4 16.3 51.9 16 52.8 16L53.1 16C53.2 16 53.3 16 53.3 16L54.6 16.2C54.9 16.2 55.2 16.3 55.5 16.3 55.9 16.3 56.6 16.2 57.5 16.1 58.1 16 58.5 16 58.7 16 59.6 16 60.1 16.3 60.1 17 60.1 17.7 59.7 18 59 18 58.8 18 58.6 18 58.5 17.9 58.2 17.9 58 17.8 57.9 17.8 57.5 17.8 57.1 18.3 56.7 19.3L52.4 30.4C52 31.3 51.4 31.8 50.5 31.8 49.7 31.8 49.1 31.3 48.7 30.4L44.3 19C44.1 18.2 43.7 17.8 43.3 17.8 43.2 17.8 43 17.9 42.7 17.9 42.4 18 42.2 18 42 18 41.4 18 41 17.7 41 17.1 41 16.3 41.5 16 42.4 16 42.6 16 42.7 16 42.8 16L44.1 16.2C44.5 16.2 45 16.3 45.4 16.3 45.7 16.3 46.2 16.2 46.9 16.1L47.9 16C48 16 48.2 16 48.3 16 49.2 16 49.7 16.3 49.7 17 49.7 17.7 49.3 18 48.5 18 48.3 18 48.1 18 48 18 47.6 17.9 47.4 17.8 47.3 17.8 47 17.8 46.8 18 46.8 18.3 46.8 18.4 46.8 18.6 46.9 18.9L47.1 19.6Z" class="a"/><path d="M63.9 31.8C63.4 31.8 62.9 31.6 62.6 31.3 62.2 30.9 62 30.4 62 29.9 62 29.4 62.2 28.9 62.6 28.5 62.9 28.1 63.4 28 63.9 28 64.4 28 64.9 28.1 65.3 28.5 65.6 28.9 65.8 29.4 65.8 29.9 65.8 30.4 65.6 30.9 65.3 31.3 64.9 31.6 64.4 31.8 63.9 31.8M63.9 21.5C63.4 21.5 62.9 21.3 62.6 20.9 62.2 20.5 62 20.1 62 19.5 62 19 62.2 18.5 62.6 18.2 62.9 17.8 63.4 17.6 63.9 17.6 64.4 17.6 64.9 17.8 65.3 18.2 65.6 18.5 65.8 19 65.8 19.5 65.8 20.1 65.6 20.5 65.3 20.9 64.9 21.3 64.4 21.5 63.9 21.5" class="b"/><path d="M78.2 21.2C78.2 20.4 78.7 19.9 79.7 19.8 79.6 19.1 79.3 18.5 78.7 18.1 78.1 17.7 77.4 17.5 76.4 17.5 75 17.5 73.9 18 73 19.2 72.2 20.3 71.7 21.8 71.7 23.6 71.7 25.6 72.1 27.1 73 28.2 73.8 29.3 74.9 29.8 76.3 29.8 77.2 29.8 78 29.5 78.7 29 79.3 28.5 79.8 27.8 80 26.9 80.2 26.2 80.3 25.8 80.4 25.7 80.6 25.3 80.9 25.1 81.4 25.1 81.7 25.1 82 25.2 82.2 25.4 82.5 25.6 82.6 25.9 82.6 26.3 82.6 26.8 82.4 27.4 82.1 28.1 81.8 28.8 81.4 29.4 80.9 29.9 79.7 31.2 78.2 31.8 76.2 31.8 74.2 31.8 72.5 31.1 71.2 29.6 69.9 28.1 69.3 26.2 69.3 23.8 69.3 21.3 70 19.3 71.3 17.7 72.6 16.2 74.3 15.5 76.5 15.5 78.1 15.5 79.5 15.9 80.6 16.8 81.7 17.7 82.2 18.8 82.2 20.2 82.2 20.9 82 21.6 81.6 22 81.2 22.5 80.6 22.8 80 22.8 79.5 22.8 79 22.6 78.7 22.3 78.4 22 78.2 21.6 78.2 21.2" class="c"/><path d="M92.1 17.5C90.7 17.5 89.5 18 88.7 19 87.9 20 87.4 21.4 87.4 23.2L87.4 23.6C87.4 25.6 87.8 27.1 88.6 28.2 89.4 29.3 90.5 29.8 92 29.8 93.5 29.8 94.6 29.3 95.5 28.2 96.3 27.1 96.8 25.5 96.8 23.6 96.8 19.5 95.2 17.5 92.1 17.5M91.9 31.8C89.8 31.8 88.1 31.1 86.8 29.6 85.5 28.1 84.9 26.1 84.9 23.6 84.9 21.1 85.5 19.2 86.8 17.7 88.1 16.2 89.8 15.5 92 15.5 94.2 15.5 96 16.2 97.3 17.6 98.6 19.1 99.2 21.1 99.2 23.5 99.2 26 98.5 28 97.2 29.6 95.9 31.1 94.1 31.8 91.9 31.8" class="c"/><path d="M106.3 16.9L106.3 17.8C107.5 16.2 109.1 15.5 111.2 15.5 112.3 15.5 113.3 15.7 114.3 16.3 115.3 16.9 115.9 17.6 116.3 18.4 116.6 19.1 116.7 20 116.7 21.1L116.7 26.9C116.7 27.8 116.7 28.3 116.7 28.5 116.8 29.2 117.1 29.6 117.5 29.6 117.7 29.6 118 29.5 118.3 29.5 118.6 29.4 118.8 29.4 118.9 29.4 119.2 29.4 119.4 29.5 119.6 29.7 119.8 29.9 119.9 30.1 119.9 30.3 119.9 30.7 119.8 30.9 119.5 31.1 119.3 31.3 119 31.4 118.6 31.4 118.3 31.4 117.9 31.4 117.2 31.3 116.6 31.2 115.9 31.2 115.4 31.2 114.8 31.2 114.4 31.2 114.1 31.2 113 31.4 112.5 31.4 112.4 31.4 111.6 31.4 111.2 31.1 111.2 30.3 111.2 29.7 111.6 29.4 112.3 29.4 112.4 29.4 112.6 29.4 112.8 29.5 113.2 29.5 113.5 29.6 113.6 29.6 114.1 29.6 114.4 29 114.4 27.9L114.4 26.3 114.4 24.5 114.4 22.1C114.4 21.1 114.3 20.3 114.2 19.9 114.1 19.1 113.7 18.5 113.1 18.1 112.4 17.6 111.6 17.4 110.8 17.4 109.2 17.4 108 18 107.3 19.1 106.8 19.9 106.5 21.3 106.5 23.2L106.5 27.3C106.5 28.2 106.6 28.8 106.7 29.1 106.8 29.5 107.1 29.6 107.4 29.6 107.6 29.6 107.8 29.6 108.1 29.5 108.4 29.4 108.6 29.4 108.8 29.4 109.4 29.4 109.7 29.7 109.7 30.4 109.7 31.1 109.3 31.4 108.5 31.4 108.3 31.4 107.8 31.4 106.9 31.2 106.5 31.2 106 31.1 105.4 31.1 105 31.1 104.4 31.2 103.7 31.3 102.8 31.4 102.3 31.4 102.2 31.4 101.3 31.4 100.9 31.1 100.9 30.4 100.9 29.7 101.2 29.4 101.9 29.4 102 29.4 102.2 29.4 102.5 29.5 102.7 29.6 103 29.6 103.3 29.6 103.9 29.6 104.2 29 104.2 27.8L104.2 24.4 104.2 20.7 104.2 19.6C104.2 18.9 104.1 18.5 104 18.2 103.8 17.9 103.6 17.8 103.3 17.8 103.1 17.8 102.9 17.8 102.6 17.9 102.4 18 102.2 18 102 18 101.3 18 100.9 17.7 100.9 17 100.9 16.3 101.3 16 102.3 16 102.4 16 102.5 16 102.6 16L103.7 16.1C104 16.1 104.3 16.1 104.6 16.1 105.1 16 105.4 16 105.4 16 106 16 106.3 16.3 106.3 16.9" class="c"/><path d="M128.4 17.5C127.5 17.5 126.7 17.7 126.1 18.3 125.5 18.8 125.1 19.5 125.1 20.3L125.1 20.4C125.1 21.3 125.4 22.1 126 22.6 126.6 23.2 127.4 23.5 128.4 23.5 129.4 23.5 130.2 23.2 130.9 22.6 131.5 22.1 131.8 21.4 131.8 20.5 131.8 19.6 131.5 18.9 130.9 18.3 130.2 17.8 129.4 17.5 128.4 17.5M128.4 29.4C126.8 29.4 125.5 29.6 124.6 30.1 123.6 30.6 123.1 31.3 123.1 32.1 123.1 32.9 123.6 33.6 124.5 34.1 125.4 34.6 126.7 34.8 128.2 34.8 129.9 34.8 131.2 34.5 132.1 34.1 133.1 33.6 133.5 32.9 133.5 32.1 133.5 31.2 133.1 30.6 132.2 30.1 131.3 29.6 130 29.4 128.4 29.4M128.3 15.5C128.8 15.5 129.4 15.5 130.1 15.7 130.2 13.7 131.4 12.7 133.6 12.7 134.5 12.7 135.3 12.9 136 13.4 136.6 13.9 136.9 14.5 136.9 15.3 136.9 15.8 136.7 16.2 136.4 16.6 136.1 16.9 135.7 17.1 135.3 17.1 135 17.1 134.7 17 134.5 16.7 134.2 16.5 134.1 16.3 134.1 15.9 134.1 15.6 134.3 15.3 134.8 14.9 134.4 14.5 134 14.3 133.5 14.3 132.4 14.3 131.9 15 131.9 16.3 133.4 17.4 134.2 18.8 134.2 20.5 134.2 22 133.7 23.1 132.6 24.1 131.5 25 130.2 25.5 128.6 25.5 127.5 25.5 126.3 25.2 125.1 24.7 124.8 24.5 124.5 24.5 124.3 24.5 124 24.5 123.7 24.6 123.5 24.8 123.3 25.1 123.1 25.4 123.1 25.8 123.1 26.8 124.2 27.3 126.4 27.3L126.6 27.3 127.1 27.3 127.5 27.3C129.4 27.3 131 27.5 132.2 27.9 133.3 28.2 134.2 28.8 134.9 29.5 135.5 30.2 135.9 31.1 135.9 32 135.9 33.5 135.2 34.7 133.8 35.5 132.4 36.4 130.6 36.8 128.2 36.8 125.9 36.8 124 36.4 122.7 35.6 121.4 34.8 120.7 33.6 120.7 32.2 120.7 30.6 121.6 29.4 123.5 28.7 121.8 28 120.9 27.1 120.9 25.8 120.9 24.3 121.8 23.3 123.5 22.8 123 22.1 122.7 21.3 122.7 20.3 122.7 18.9 123.2 17.8 124.3 16.8 125.4 15.9 126.7 15.5 128.3 15.5" class="c"/><path d="M143.1 16.8L143.1 17.7C144.2 16.2 145.6 15.5 147.4 15.5 148.8 15.5 150 15.9 150.9 16.7 151.8 17.5 152.2 18.5 152.2 19.8 152.2 20.7 152 21.4 151.5 22 151.1 22.5 150.5 22.8 149.7 22.8 149.3 22.8 148.9 22.7 148.6 22.4 148.2 22.1 148.1 21.7 148.1 21.3 148.1 21 148.2 20.7 148.4 20.5 148.7 20.2 149 20.1 149.3 20.1 149.4 20.1 149.5 20.1 149.7 20.2 149.8 19.9 149.9 19.7 149.9 19.5 149.9 18.9 149.6 18.4 149.1 18 148.6 17.6 147.9 17.4 147.2 17.4 145.6 17.4 144.5 18.1 144 19.5 143.6 20.4 143.5 21.7 143.5 23.5L143.5 25.5C143.5 26.9 143.5 27.7 143.5 27.8 143.6 29 143.9 29.6 144.5 29.6 144.7 29.6 145 29.5 145.3 29.5 145.5 29.4 145.7 29.4 145.9 29.4 146.5 29.4 146.9 29.7 146.9 30.4 146.9 31.1 146.5 31.4 145.6 31.4L145.5 31.4C145.2 31.4 144.7 31.4 144.1 31.3 143.5 31.2 143 31.2 142.7 31.2 141.9 31.2 141.3 31.2 140.8 31.3L139.1 31.4C138.2 31.4 137.8 31.1 137.8 30.3 137.8 29.7 138.2 29.4 139 29.4 139.2 29.4 139.4 29.4 139.5 29.4L139.9 29.5C140.1 29.6 140.3 29.6 140.4 29.6 140.9 29.6 141.1 29.1 141.2 28.2L141.2 26.6 141.1 19.7C141 18.4 140.7 17.8 140.2 17.8 140 17.8 139.8 17.9 139.5 17.9 139.2 18 139 18 138.8 18 138.2 18 137.8 17.7 137.8 17 137.8 16.3 138.3 16 139.1 16 139.3 16 139.6 16 140.1 16.1 140.5 16.1 140.8 16.1 141 16.1 141.1 16.1 141.4 16.1 141.8 16.1 141.9 16 142.1 16 142.3 16 142.9 16 143.1 16.3 143.1 16.8" class="c"/><path d="M156.3 21.5C156.3 21.8 156.5 21.9 157 21.9L164.3 21.9C164.8 21.9 165 21.8 165 21.5 165 20.4 164.6 19.5 163.8 18.7 162.9 17.9 162 17.5 160.9 17.5 159.7 17.5 158.7 17.9 157.7 18.7 156.8 19.5 156.3 20.5 156.3 21.5M167.4 22.3C167.4 23 167.4 23.5 167.3 23.7 167.2 23.9 166.9 23.9 166.4 23.9L156.6 23.9C156.4 23.9 156.2 24 156.1 24.1 156 24.1 156 24.2 156 24.4 156 25.9 156.4 27.2 157.4 28.3 158.3 29.3 159.4 29.8 160.8 29.8 161.7 29.8 162.5 29.6 163.3 29.1 164 28.6 164.5 27.9 164.7 27.2L165 26.3C165.1 25.8 165.5 25.6 166 25.6 166.8 25.6 167.1 26 167.1 26.7 167.1 28.1 166.5 29.2 165.1 30.3 163.8 31.3 162.3 31.8 160.5 31.8 158.4 31.8 156.7 31.1 155.4 29.7 154.2 28.2 153.5 26.3 153.5 23.9 153.5 21.4 154.2 19.3 155.6 17.8 156.9 16.2 158.7 15.5 160.8 15.5 162.7 15.5 164.3 16.1 165.6 17.4 166.8 18.7 167.4 20.3 167.4 22.3" class="c"/><path d="M176.1 15.5C177.5 15.5 178.6 15.8 179.5 16.5L179.5 16.4C179.5 15.6 179.9 15.3 180.5 15.3 181.2 15.3 181.5 15.6 181.5 16.3 181.5 16.4 181.5 16.7 181.5 17.2 181.4 17.6 181.4 18 181.4 18.4 181.4 18.6 181.4 19 181.4 19.5 181.5 19.9 181.5 20.3 181.5 20.5 181.5 21.3 181.2 21.7 180.5 21.7 179.9 21.7 179.6 21.4 179.5 20.7L179.5 19.7C179.5 19.1 179.2 18.6 178.5 18.1 177.8 17.7 177 17.5 176.1 17.5 175.1 17.5 174.3 17.7 173.7 18.2 173.1 18.7 172.7 19.3 172.7 20 172.7 21.3 173.6 22.1 175.4 22.3L177.2 22.6C180.7 23 182.4 24.5 182.4 26.9 182.4 28.4 181.9 29.5 180.8 30.5 179.6 31.4 178.2 31.8 176.4 31.8 174.7 31.8 173.2 31.3 172 30.4L172 31C172 31.7 171.6 32.1 170.9 32.1 170.2 32.1 169.8 31.6 169.8 30.8 169.8 31 169.9 30.4 170 29.2 170 28.9 170.1 28.6 170.1 28.4 170.1 27.9 170 27.4 169.9 27 169.9 26.5 169.8 26.2 169.8 26 169.8 25.3 170.1 24.9 170.8 24.9 171.2 24.9 171.5 25 171.6 25.2 171.7 25.4 171.8 25.9 171.8 26.8 171.8 27.7 172.3 28.4 173.2 29 174.1 29.5 175.2 29.8 176.6 29.8 177.6 29.8 178.4 29.5 179.1 29 179.7 28.5 180.1 27.9 180.1 27.1 180.1 25.7 179 24.9 176.8 24.7 174.7 24.5 173.1 24 172 23.4 170.8 22.8 170.3 21.8 170.3 20.3 170.3 18.8 170.8 17.7 171.9 16.8 173 15.9 174.4 15.5 176.1 15.5" class="c"/><path d="M191.2 15.5C192.5 15.5 193.7 15.8 194.6 16.5L194.6 16.4C194.6 15.6 194.9 15.3 195.6 15.3 196.2 15.3 196.6 15.6 196.6 16.3 196.6 16.4 196.5 16.7 196.5 17.2 196.4 17.6 196.4 18 196.4 18.4 196.4 18.6 196.4 19 196.5 19.5 196.5 19.9 196.6 20.3 196.6 20.5 196.6 21.3 196.2 21.7 195.6 21.7 194.9 21.7 194.6 21.4 194.6 20.7L194.6 19.7C194.6 19.1 194.2 18.6 193.5 18.1 192.8 17.7 192 17.5 191.1 17.5 190.2 17.5 189.4 17.7 188.7 18.2 188.1 18.7 187.8 19.3 187.8 20 187.8 21.3 188.7 22.1 190.5 22.3L192.3 22.6C195.7 23 197.5 24.5 197.5 26.9 197.5 28.4 196.9 29.5 195.8 30.5 194.7 31.4 193.2 31.8 191.4 31.8 189.7 31.8 188.3 31.3 187 30.4L187 31C187 31.7 186.7 32.1 186 32.1 185.2 32.1 184.9 31.6 184.9 30.8 184.9 31 184.9 30.4 185 29.2 185.1 28.9 185.1 28.6 185.1 28.4 185.1 27.9 185.1 27.4 185 27 184.9 26.5 184.9 26.2 184.9 26 184.9 25.3 185.2 24.9 185.8 24.9 186.3 24.9 186.5 25 186.6 25.2 186.8 25.4 186.8 25.9 186.8 26.8 186.9 27.7 187.3 28.4 188.2 29 189.1 29.5 190.3 29.8 191.6 29.8 192.6 29.8 193.5 29.5 194.1 29 194.8 28.5 195.1 27.9 195.1 27.1 195.1 25.7 194 24.9 191.8 24.7 189.7 24.5 188.1 24 187 23.4 185.9 22.8 185.3 21.8 185.3 20.3 185.3 18.8 185.9 17.7 187 16.8 188 15.9 189.4 15.5 191.2 15.5" class="c"/><path d="M207 20.2C207 21.2 206.9 22 206.6 22.5 206.3 23 205.8 23.4 205.1 23.8 205.8 24.2 206.3 24.6 206.6 25.2 206.9 25.7 207 26.5 207 27.4L207 32.4C207 33.5 207.2 34.2 207.6 34.6 208 35 208.7 35.1 209.9 35.1L209.9 37.1 209 37.1C207.5 37.1 206.4 36.7 205.7 36 205.1 35.4 204.8 34.2 204.8 32.6L204.8 27.5C204.8 26.6 204.6 26 204.4 25.5 204.1 25.1 203.7 24.8 203 24.6L203 22.8C204.2 22.5 204.8 21.6 204.8 20.1L204.8 14.7C204.8 13.2 205.1 12.2 205.8 11.5 206.5 10.8 207.6 10.5 209.1 10.5L209.9 10.5 209.9 12.5C208.7 12.5 208 12.7 207.6 13 207.2 13.4 207 14.1 207 15.1L207 20.2Z" class="c"/><path d="M217.8 27.3C217.8 26.4 217.9 25.6 218.1 25.1 218.4 24.6 218.9 24.1 219.6 23.8 218.9 23.4 218.4 22.9 218.2 22.4 217.9 21.9 217.8 21.1 217.8 20.1L217.8 15.2C217.8 14.1 217.6 13.3 217.2 13 216.8 12.6 216 12.5 214.8 12.5L214.8 10.5 215.7 10.5C217.2 10.5 218.3 10.9 219 11.5 219.7 12.2 220 13.4 220 15L220 20.1C220 21.7 220.6 22.6 221.7 22.9L221.7 24.7C220.6 25.1 220 26 220 27.5L220 32.9C220 34.4 219.6 35.4 219 36.1 218.3 36.7 217.2 37.1 215.7 37.1L214.8 37.1 214.8 35.1C216 35.1 216.8 34.9 217.2 34.6 217.6 34.2 217.8 33.5 217.8 32.5L217.8 27.3Z" class="c"/><path d="M229.7 21.5C229.2 21.5 228.7 21.3 228.4 20.9 228 20.5 227.8 20.1 227.8 19.5 227.8 19 228 18.5 228.4 18.2 228.7 17.8 229.2 17.6 229.7 17.6 230.2 17.6 230.7 17.8 231.1 18.2 231.4 18.5 231.6 19 231.6 19.5 231.6 20.1 231.4 20.5 231.1 20.9 230.7 21.3 230.2 21.5 229.7 21.5M230.4 32.3C230.4 32 230.2 31.8 229.9 31.8L229.3 31.8C228.8 31.8 228.4 31.6 228.1 31.3 227.8 31 227.6 30.5 227.6 30 227.6 29.4 227.8 28.9 228.2 28.5 228.6 28.1 229.2 27.9 229.8 27.9 230.5 27.9 231.1 28.2 231.5 28.8 232 29.4 232.2 30.1 232.2 31 232.2 32.6 231.6 34.2 230.4 35.8 229.9 36.6 229.4 36.9 229.1 36.9 228.7 36.9 228.5 36.7 228.5 36.3 228.5 36.2 228.5 36 228.7 35.7 229.8 34.2 230.4 33.1 230.4 32.3" class="b"/><path d="M29.8 20.9C29.8 21.2 30 21.4 30.4 21.4L37.8 21.4C38.2 21.4 38.4 21.2 38.4 20.9 38.4 19.9 38 18.9 37.2 18.1 36.4 17.3 35.4 16.9 34.3 16.9 33.2 16.9 32.1 17.3 31.2 18.2 30.2 19 29.8 19.9 29.8 20.9M40.9 21.7C40.9 22.5 40.8 23 40.7 23.1 40.6 23.3 40.3 23.4 39.8 23.4L30.1 23.4C29.8 23.4 29.6 23.4 29.5 23.5 29.5 23.6 29.4 23.7 29.4 23.9 29.4 25.4 29.9 26.7 30.8 27.7 31.7 28.7 32.9 29.2 34.2 29.2 35.1 29.2 36 29 36.7 28.5 37.4 28 37.9 27.4 38.2 26.6L38.4 25.8C38.6 25.3 38.9 25 39.4 25 40.2 25 40.6 25.4 40.6 26.2 40.6 27.5 39.9 28.7 38.6 29.7 37.2 30.8 35.7 31.3 34 31.3 31.8 31.3 30.1 30.5 28.9 29.1 27.6 27.7 27 25.7 27 23.3 27 20.8 27.6 18.8 29 17.2 30.3 15.7 32.1 14.9 34.2 14.9 36.2 14.9 37.7 15.5 39 16.8 40.2 18.1 40.9 19.7 40.9 21.7" class="a"/></g></svg>
