<?xml version="1.0" encoding="UTF-8"?>
<svg width="80px" height="80px" viewBox="0 0 80 80" version="1.1" xmlns="http://www.w3.org/2000/svg" xmlns:xlink="http://www.w3.org/1999/xlink">
    <!-- Generator: Sketch 51.1 (57501) - http://www.bohemiancoding.com/sketch -->
    <title>effort</title>
    <desc>Created with Sketch.</desc>
    <defs></defs>
    <g id="Page-1" stroke="none" stroke-width="1" fill="none" fill-rule="evenodd">
        <g id="Desktop-HD-Copy" transform="translate(-310.000000, -1682.000000)" fill-rule="nonzero">
            <g id="effort" transform="translate(310.000000, 1681.000000)">
                <path d="M40.0314856,1 C57.8777239,1 91.986849,65.0595158 75.7239623,77.4023492 C70.3049045,81.5151816 67.6993856,80.9768255 39.9307417,80.9768255 C12.1620979,80.9768255 9.16240897,81.5151816 4.33900897,77.4023492 C-12.0951152,63.3892467 22.1852473,1 40.0314856,1 Z" id="Triangle" fill="#25B48D" transform="translate(40.000000, 41.000000) rotate(90.000000) translate(-40.000000, -41.000000) "></path>
                <path d="M53.9893699,8.42455001 C52.6307954,4.42335806 50.7835882,1.55973979 50.7058042,1.43983997 C50.5022503,1.12681806 50.1352597,0.958701828 49.7638833,1.00871352 C49.621473,1.02769232 46.2320025,1.49395518 42.2903048,3.06855411 C36.9864208,5.18725462 33.248793,8.32401368 31.4811757,12.1393929 C28.5333838,18.5028039 25.4550491,31.3245197 24.6191621,40.721204 C24.5831725,41.125914 24.8069787,41.5094652 25.178226,41.6795049 L35.5992094,46.450364 C35.7289783,46.5097369 35.8668739,46.5384615 36.0036085,46.5384615 C36.2583735,46.5384615 36.5090106,46.4384382 36.6950213,46.2495478 C43.3342607,39.5100233 51.1341964,28.8498385 54.0822462,22.4862994 C55.8497346,18.6710483 55.8176148,13.8085012 53.9893699,8.42455001 Z" id="Shape" fill="#EBEEF2"></path>
                <path d="M53.752794,9.2615109 C52.121443,5.78221261 50.5336317,2.54744821 50.4555231,2.43018132 C50.2511195,2.1240332 49.8825972,1.95960871 49.5096707,2.00852218 C49.4746967,2.01303727 49.2430911,2.04414121 48.8566932,2.11061336 C49.3245676,3.04022 50.3478809,5.24922727 51.0831121,8.11066489 C52.3761138,13.1423553 52.1253373,17.7760907 50.3579845,21.5109472 C47.4101945,27.7401395 40.2573062,37.990546 34.0540845,44.7819923 C33.8802508,44.9722532 33.7119373,45.1267765 33.5312498,45.2183564 C33.3505622,45.3099362 33.1242988,45.2988637 33.0781849,45.2933453 L35.349003,46.3563749 C35.4793135,46.414444 35.7780329,46.5467589 36.0635951,46.5467589 C36.3491573,46.5467589 36.447438,46.5002168 36.634225,46.3154744 C43.301176,39.7239462 50.8855738,29.2382711 53.8459285,23.0144718 C55.6209237,19.2830017 56.1270925,14.325346 53.752794,9.2615109 Z" id="Shape" fill="#D1D6DE"></path>
                <path d="M49.9443537,1.00789722 C49.8064992,1.02509805 46.5254627,1.4476806 42.7098656,2.87476834 C39.5673079,4.05011962 39.2768642,4.46045027 36.9754496,5.92707989 C39.0172408,8.63943604 41.7616089,10.9187556 45.2085538,12.7650386 C48.6554987,14.6113215 52.0349298,15.3689285 55.3468469,15.0378596 C55.0780594,12.7650386 55.0780594,10.6060764 54.034536,7.72912138 C52.7195491,4.10265189 50.9314367,1.50730239 50.8561411,1.39863499 C50.6590992,1.11493752 50.3038492,0.962570713 49.9443537,1.00789722 Z" id="Shape" fill="#5C9CEE"></path>
                <path d="M49.2307692,1.09716392 C49.659772,1.91374002 50.5980671,3.85415487 51.2722143,6.36767129 C51.9711848,8.9736199 52.1885091,12.7080095 51.9084458,14.9806954 C52.6624724,15.0588118 53.2313362,15.1023496 53.6150372,15.1113089 C53.9968131,15.1202232 54.5761646,15.1034959 55.3530918,15.0611268 C54.7494174,8.03056341 53.24684,5.27983807 50.7893524,1.3195343 C50.6084498,1.02800506 50.1714398,0.964519876 49.8294965,1.00748597 C49.8254583,1.00803682 49.8185695,1.00891817 49.8090678,1.01013004 C49.7419619,1.01872325 49.5406442,1.04604528 49.2307692,1.09716392 Z" id="Shape" fill="#3580D3"></path>
                <circle id="Oval" fill="#8088A0" cx="41.8461538" cy="19.4615385" r="3.69230769"></circle>
                <path d="M35.5084484,37.3926694 C35.2360834,36.6528297 34.6929986,36.0637263 33.9790528,35.7338081 C33.2649804,35.4038899 32.4657307,35.3727775 31.7286238,35.6460585 C30.9912637,35.9193395 30.4041347,36.4642506 30.0753222,37.1805973 C30.0564642,37.2217418 30.0405172,37.2642832 30.0276077,37.3077136 L27.140943,47.0551588 C26.9255316,47.7826805 27.2678864,48.5413146 27.9550007,48.8587879 C28.1616792,48.9542838 28.3781031,49 28.5912364,49 C29.0864801,49 29.5627393,48.7524978 29.8500389,48.3068924 L35.3556861,39.7696553 C35.3802394,39.7316855 35.4020084,39.6918108 35.4209929,39.6506663 C35.7496788,38.9343196 35.7808135,38.1323821 35.5084484,37.3926694 Z" id="Shape" fill="#ED5575"></path>
                <path d="M62.1023322,16.047464 C60.4967045,15.5855745 58.7831262,15.7015924 57.2771875,16.3744235 C55.7711112,17.0472547 54.6525005,18.1961592 54.1278935,19.6095895 L53.2364748,22.0105661 C52.1533887,24.9283498 53.9683084,28.078048 57.2824198,29.0317709 C57.932602,29.2188301 58.5925603,29.3076923 59.242054,29.3076923 C61.9036425,29.3076923 64.3859559,27.8149771 65.2568585,25.4696454 L66.1481395,23.0686688 C67.2312257,20.1507639 65.416306,17.0010657 62.1023322,16.047464 Z" id="Shape" fill="#7B5F49"></path>
                <path d="M69.9340992,14.292955 C69.7286496,14.0401346 69.4162409,13.9254584 69.1121847,13.9924374 L65.738797,14.7345344 C65.6956422,14.7441753 65.6503992,14.7411308 65.6082884,14.726162 L62.3120458,13.5480673 C59.9869037,12.7172992 56.1878838,14.9321553 55.4279174,17.4744399 C54.3607149,18.9892277 53.7260783,19.9653323 53.5240076,20.4027537 C53.4654062,20.5296078 52.5047139,20.8622062 51.5866912,20.7119533 C50.6686524,20.5616978 50.2399955,20.0677451 49.8663501,20.1286814 C49.4488575,20.1967686 49.4079694,20.598093 49.4079694,21.0536456 C49.4079694,21.5091982 49.4813583,21.9187596 49.5987959,22.1669207 C49.7162335,22.4150817 49.9142708,22.947835 50.7868149,23.0508406 C51.6593589,23.1538462 51.81562,23.0202411 52.0754531,22.8866377 C52.2486751,22.7975687 52.7315266,22.3672972 53.5240076,21.5958231 C55.1155736,21.9590956 55.9357838,22.1494614 55.9846383,22.1669207 L58.6145327,23.1067833 C58.7026985,23.1382431 58.7938806,23.1538462 58.8848306,23.1538462 C59.0203276,23.1538462 59.1553605,23.119215 59.2785607,23.0508406 C59.4843583,22.9366718 59.6402727,22.7377645 59.7118494,22.4978832 L59.7577885,22.3443896 C59.9409646,21.7313034 60.5460607,21.3955204 61.1070739,21.5958231 L62.7020637,22.1659058 C65.3588718,23.1152825 68.226698,21.5242774 69.0951316,18.6191899 L70.1108949,15.2206396 C70.2068333,14.8990642 70.1395488,14.5459022 69.9340992,14.292955 Z" id="Shape" fill="#444966"></path>
                <path d="M53.5278819,28.9943821 C51.4970869,27.4578692 48.6212326,27.8963802 47.1177415,29.9722604 L40.7867201,38.7122702 C40.6405829,38.9139828 40.5843852,39.1694538 40.6318565,39.4157669 C40.6793279,39.6620799 40.8262795,39.8765186 41.0365262,40.0063949 L47.4156008,43.9482361 C47.5562695,44.0351771 47.7121802,44.0769231 47.8664619,44.0769231 C48.134768,44.0769231 48.3981872,43.9504959 48.5682928,43.7156005 L54.4849874,35.5474271 C55.0736084,34.7332025 55.3846154,33.7704289 55.3846154,32.7630549 C55.3847317,31.2830359 54.6906964,29.8741395 53.5278819,28.9943821 Z" id="Shape" fill="#9FD479"></path>
                <g id="Group" transform="translate(32.000000, 28.076923)" fill="#7DB24F">
                    <path d="M21.3204591,0.578666667 C21.1012129,0.419636364 20.8724396,0.282545455 20.6371087,0.164727273 C21.2496866,0.978666667 21.5945169,1.97515152 21.5945169,3.00569697 C21.5945169,4.03236364 21.2636679,5.01357576 20.637851,5.84339394 L14.3460285,14.168 C14.165138,14.4073939 13.8848938,14.5362424 13.5997004,14.5362424 C13.435637,14.5362424 13.2698413,14.493697 13.120254,14.4050909 L7.59727798,11.134303 C7.6,11.1561212 7.60247456,11.1780606 7.60680505,11.1998788 C7.65740985,11.4509091 7.81355474,11.6694545 8.03713146,11.8018182 L14.8206496,15.8191515 C14.9702369,15.9077576 15.1360326,15.950303 15.3000961,15.950303 C15.5854131,15.950303 15.8655336,15.8214545 16.0464241,15.5820606 L22.3382466,7.25745455 C22.9641872,6.42763636 23.2949125,5.44642424 23.2949125,4.41975758 C23.2950362,2.91115152 22.556998,1.47527273 21.3204591,0.578666667 Z" id="Shape"></path>
                    <path d="M20.0256443,2.6710303 C19.542486,2.09563636 18.8601254,1.73842424 18.1036516,1.66448485 L3.23437688,0.0375757576 C3.22992267,0.0370909091 3.22559219,0.0366060606 3.2212617,0.0362424242 C1.65300773,-0.11369697 0.254508751,1.01466667 0.102075702,2.55030303 C-0.0501098901,4.08339394 1.09734473,5.45224242 2.66089703,5.60533333 L17.5305429,7.23224242 C17.5348734,7.23272727 17.5392039,7.23321212 17.5436581,7.23357576 C17.6379389,7.24254545 17.7318486,7.2470303 17.8252633,7.2470303 C18.4847342,7.2470303 19.1185934,7.02533333 19.6345397,6.60945455 C20.223733,6.13466667 20.5888547,5.46339394 20.6627204,4.71963636 C20.7365861,3.97563636 20.5102873,3.24812121 20.0256443,2.6710303 Z" id="Shape"></path>
                </g>
                <g id="Group" transform="translate(9.846154, 53.923077)" fill="#DCE0E5">
                    <path d="M18.6603761,13.5225339 L8.46851282,13.5225339 C7.90208547,13.5225339 7.44287179,13.0768265 7.44287179,12.5270588 C7.44287179,11.9772911 7.90208547,11.5315837 8.46851282,11.5315837 L18.6603761,11.5315837 C19.2268034,11.5315837 19.6860171,11.9772911 19.6860171,12.5270588 C19.6860171,13.0768265 19.2268034,13.5225339 18.6603761,13.5225339 Z" id="Shape"></path>
                    <path d="M18.6603761,7.80824133 L11.4983932,7.80824133 C10.9319658,7.80824133 10.4727521,7.36253394 10.4727521,6.81276621 C10.4727521,6.26299849 10.9319658,5.8172911 11.4983932,5.8172911 L18.6603761,5.8172911 C19.2268034,5.8172911 19.6860171,6.26299849 19.6860171,6.81276621 C19.6860171,7.36253394 19.2268034,7.80824133 18.6603761,7.80824133 Z" id="Shape"></path>
                    <path d="M18.6936625,2.09381599 L15.7615854,2.09381599 C15.213541,2.09381599 14.7692308,1.6481086 14.7692308,1.09834087 C14.7692308,0.548573152 15.213541,0.102865762 15.7615854,0.102865762 L18.6936625,0.102865762 C19.2417069,0.102865762 19.6860171,0.548573152 19.6860171,1.09834087 C19.6860171,1.6481086 19.2417069,2.09381599 18.6936625,2.09381599 Z" id="Shape"></path>
                    <path d="M11.3090471,2.09381599 L8.37697,2.09381599 C7.82892562,2.09381599 7.38461538,1.6481086 7.38461538,1.09834087 C7.38461538,0.548573152 7.82892562,0.102865762 8.37697,0.102865762 L11.3090471,0.102865762 C11.8570915,0.102865762 12.3014017,0.548573152 12.3014017,1.09834087 C12.3014017,1.6481086 11.8570915,2.09381599 11.3090471,2.09381599 Z" id="Shape"></path>
                    <path d="M7.6167394,7.81248869 L4.68466231,7.81248869 C4.13661793,7.81248869 3.69230769,7.3667813 3.69230769,6.81701357 C3.69230769,6.26724585 4.13661793,5.82153846 4.68466231,5.82153846 L7.6167394,5.82153846 C8.16478378,5.82153846 8.60909402,6.26724585 8.60909402,6.81701357 C8.60909402,7.3667813 8.16478378,7.81248869 7.6167394,7.81248869 Z" id="Shape-Copy"></path>
                    <path d="M3.92443171,13.5232579 L0.992354613,13.5232579 C0.444310239,13.5232579 0,13.0775505 0,12.5277828 C0,11.9780151 0.444310239,11.5323077 0.992354613,11.5323077 L3.92443171,11.5323077 C4.47247609,11.5323077 4.91678632,11.9780151 4.91678632,12.5277828 C4.91678632,13.0775505 4.47247609,13.5232579 3.92443171,13.5232579 Z" id="Shape-Copy-2"></path>
                </g>
                <path d="M37.9459429,28.6732999 C37.7829104,28.467281 37.5422996,28.3348034 37.2787173,28.3058522 L35.337554,28.092337 C35.3328285,28.09182 35.3282341,28.091303 35.3236398,28.0909153 C33.6616796,27.9327176 32.1762723,29.1341929 32.0145525,30.7714872 C31.9361866,31.5646729 32.1761411,32.3404102 32.6904417,32.955882 C33.2030358,33.569415 33.9269684,33.9503044 34.7293982,34.0291447 L36.5076601,34.2246946 C36.5448084,34.2288305 36.581563,34.2307692 36.6180549,34.2307692 C37.1040021,34.2307692 37.525235,33.8772801 37.592312,33.3922181 L38.1448111,29.4001821 C38.1806467,29.1413014 38.1089754,28.8791896 37.9459429,28.6732999 Z" id="Shape" fill="#7B5F49"></path>
                <path d="M49.2208698,48.6160749 C49.1831071,48.3574405 49.0394475,48.1242796 48.822547,47.968969 L41.9338734,43.0371093 C41.6280087,42.8181148 41.2205476,42.7849732 40.8806831,42.9506812 C40.6918694,43.0426979 40.5418936,43.1876112 40.445807,43.3613771 L29.6662288,62.0547979 C29.4025617,62.512022 29.5595256,63.0890757 30.0215478,63.3616166 L34.642039,66.0880654 C34.8053191,66.184501 34.9867414,66.2307692 35.1662824,66.2307692 C35.4709375,66.2307692 35.7703516,66.097423 35.9673628,65.8482762 L49.0234554,49.3446702 C49.1874075,49.1371128 49.2586325,48.8747094 49.2208698,48.6160749 Z" id="Shape" fill="#2E344C"></path>
                <path d="M57.3277505,49.7144744 L43.2569604,41.7481509 C42.8229543,41.5025215 42.2602276,41.6063708 41.9583501,41.9881337 L40.3796218,43.984594 C40.3479004,44.0247344 40.3197182,44.067207 40.2955995,44.1113982 L39.9908383,44.6231569 C38.7470195,46.711805 39.474645,49.3322205 41.6474282,50.5889692 L50.7074205,55.8283272 L48.0020589,64.9039726 C47.8573465,65.3893393 48.1563402,65.8934873 48.6726646,66.0350219 L53.7404822,67.424467 C53.8309275,67.4492631 53.9239943,67.4615385 54.0166679,67.4615385 C54.1818288,67.4615385 54.3460722,67.4225029 54.493144,67.3461503 C54.7227963,67.2269568 54.8920206,67.0267461 54.963066,66.7900777 L58.9309908,53.5710161 C59.3923927,52.0958892 58.733191,50.5100388 57.3277505,49.7144744 Z" id="Shape" fill="#656D88"></path>
            </g>
        </g>
    </g>
</svg>