<svg xmlns="http://www.w3.org/2000/svg" width="119" height="119" viewBox="0 0 119 119"><title>  icon</title><desc>  Created with Sketch.</desc><g fill="none"><g fill="#F0F0F0"><path d="M59.1 0C26.4 0 0 26.4 0 59.1 0 91.7 26.4 118.1 59.1 118.1 91.7 118.1 118.1 91.7 118.1 59.1 118.1 26.4 91.7 0 59.1 0L59.1 0ZM71.4 91.5C68.3 92.7 65.9 93.6 64.1 94.3 62.3 94.9 60.2 95.2 57.8 95.2 54.1 95.2 51.2 94.3 49.2 92.5 47.1 90.7 46.1 88.5 46.1 85.7 46.1 84.6 46.2 83.5 46.4 82.4 46.5 81.3 46.8 80 47.1 78.6L50.9 65.2C51.2 63.9 51.5 62.6 51.8 61.5 52 60.4 52.1 59.3 52.1 58.3 52.1 56.6 51.7 55.4 51 54.8 50.3 54.1 49 53.8 47 53.8 46 53.8 45 53.9 43.9 54.2 42.9 54.5 42 54.8 41.3 55.1L42.3 50.9C44.8 49.9 47.2 49.1 49.4 48.3 51.7 47.6 53.9 47.2 55.9 47.2 59.6 47.2 62.4 48.1 64.4 49.9 66.3 51.7 67.3 54 67.3 56.8 67.3 57.4 67.3 58.4 67.1 59.9 67 61.3 66.7 62.7 66.4 63.9L62.6 77.3C62.3 78.4 62 79.6 61.7 81 61.5 82.4 61.4 83.4 61.4 84.1 61.4 85.9 61.8 87.1 62.6 87.8 63.4 88.4 64.8 88.7 66.7 88.7 67.6 88.7 68.7 88.6 69.8 88.3 71 87.9 71.8 87.6 72.4 87.4L71.4 91.5 71.4 91.5ZM70.7 37.1C68.9 38.8 66.8 39.6 64.3 39.6 61.8 39.6 59.7 38.8 57.9 37.1 56.1 35.5 55.2 33.5 55.2 31.2 55.2 28.9 56.1 26.9 57.9 25.2 59.7 23.5 61.8 22.7 64.3 22.7 66.8 22.7 68.9 23.5 70.7 25.2 72.4 26.9 73.3 28.9 73.3 31.2 73.3 33.5 72.4 35.5 70.7 37.1L70.7 37.1Z"/></g></g></svg>