<?xml version="1.0" encoding="UTF-8" standalone="no"?>
<svg width="119px" height="119px" viewBox="0 0 119 119" version="1.1" xmlns="http://www.w3.org/2000/svg" xmlns:xlink="http://www.w3.org/1999/xlink">
    <!-- Generator: Sketch 3.7.2 (28276) - http://www.bohemiancoding.com/sketch -->
    <title>icon</title>
    <desc>Created with Sketch.</desc>
    <defs></defs>
    <g id="Page-1" stroke="none" stroke-width="1" fill="none" fill-rule="evenodd">
        <g id="Desktop-HD" transform="translate(-391.000000, -863.000000)" fill="#F0F0F0">
            <g id="icon" transform="translate(391.000000, 863.000000)">
                <g id="Capa_1">
                    <path d="M59.06,0 C26.445,0 0,26.445 0,59.06 C0,91.675 26.445,118.125 59.06,118.125 C91.675,118.125 118.125,91.675 118.125,59.06 C118.125,26.445 91.675,0 59.06,0 L59.06,0 Z M71.355,91.535 C68.315,92.735 65.895,93.645 64.08,94.275 C62.27,94.905 60.165,95.22 57.77,95.22 C54.09,95.22 51.225,94.32 49.185,92.525 C47.145,90.73 46.13,88.455 46.13,85.69 C46.13,84.615 46.205,83.515 46.355,82.395 C46.51,81.275 46.755,80.015 47.09,78.6 L50.895,65.16 C51.23,63.87 51.52,62.645 51.75,61.505 C51.98,60.355 52.09,59.3 52.09,58.34 C52.09,56.63 51.735,55.43 51.03,54.755 C50.315,54.08 48.97,53.75 46.965,53.75 C45.985,53.75 44.975,53.895 43.94,54.2 C42.915,54.515 42.025,54.8 41.295,55.08 L42.3,50.94 C44.79,49.925 47.175,49.055 49.45,48.335 C51.725,47.605 53.875,47.245 55.9,47.245 C59.555,47.245 62.375,48.135 64.36,49.895 C66.335,51.66 67.33,53.955 67.33,56.775 C67.33,57.36 67.26,58.39 67.125,59.86 C66.99,61.335 66.735,62.68 66.365,63.915 L62.58,77.315 C62.27,78.39 61.995,79.62 61.745,80.995 C61.5,82.37 61.38,83.42 61.38,84.125 C61.38,85.905 61.775,87.12 62.575,87.765 C63.365,88.41 64.75,88.735 66.71,88.735 C67.635,88.735 68.67,88.57 69.84,88.25 C71,87.93 71.84,87.645 72.37,87.4 L71.355,91.535 L71.355,91.535 Z M70.685,37.145 C68.92,38.785 66.795,39.605 64.31,39.605 C61.83,39.605 59.69,38.785 57.91,37.145 C56.14,35.505 55.245,33.51 55.245,31.18 C55.245,28.855 56.145,26.855 57.91,25.2 C59.69,23.54 61.83,22.715 64.31,22.715 C66.795,22.715 68.925,23.54 70.685,25.2 C72.45,26.855 73.335,28.855 73.335,31.18 C73.335,33.515 72.45,35.505 70.685,37.145 L70.685,37.145 Z" id="Shape"></path>
                </g>
            </g>
        </g>
    </g>
</svg>