<?xml version="1.0" encoding="UTF-8"?>
<svg width="80px" height="80px" viewBox="0 0 80 80" version="1.1" xmlns="http://www.w3.org/2000/svg" xmlns:xlink="http://www.w3.org/1999/xlink">
    <!-- Generator: Sketch 51.1 (57501) - http://www.bohemiancoding.com/sketch -->
    <title>icon</title>
    <desc>Created with Sketch.</desc>
    <defs></defs>
    <g id="Page-1" stroke="none" stroke-width="1" fill="none" fill-rule="evenodd">
        <g id="Desktop-HD-Copy" transform="translate(-310.000000, -162.000000)" fill="#CCC2B9">
            <g id="toprank" transform="translate(310.000000, 108.000000)">
                <g id="icon" transform="translate(0.000000, 54.000000)">
                    <path d="M39.7042017,0 C17.7781513,0 0,17.7781513 0,39.7042017 C0,61.6302521 17.7781513,79.4117647 39.7042017,79.4117647 C61.6302521,79.4117647 79.4117647,61.6302521 79.4117647,39.7042017 C79.4117647,17.7781513 61.6302521,0 39.7042017,0 L39.7042017,0 Z M47.9697479,61.5361345 C45.9260504,62.3428571 44.2991597,62.9546218 43.0789916,63.3781513 C41.8621849,63.8016807 40.4470588,64.0134454 38.8369748,64.0134454 C36.3630252,64.0134454 34.4369748,63.4084034 33.0655462,62.2016807 C31.6941176,60.994958 31.0117647,59.4655462 31.0117647,57.6067227 C31.0117647,56.8840336 31.0621849,56.1445378 31.1630252,55.3915966 C31.2672269,54.6386555 31.4319328,53.7915966 31.6571429,52.8403361 L34.2151261,43.805042 C34.4403361,42.9378151 34.6352941,42.1142857 34.789916,41.3478992 C34.9445378,40.5747899 35.0184874,39.8655462 35.0184874,39.2201681 C35.0184874,38.0705882 34.7798319,37.2638655 34.3058824,36.810084 C33.8252101,36.3563025 32.9210084,36.1344538 31.5731092,36.1344538 C30.9142857,36.1344538 30.2352941,36.2319328 29.5394958,36.4369748 C28.8504202,36.6487395 28.2521008,36.8403361 27.7613445,37.0285714 L28.4369748,34.2453782 C30.1109244,33.5630252 31.7142857,32.9781513 33.2436975,32.4941176 C34.7731092,32.0033613 36.2184874,31.7613445 37.5798319,31.7613445 C40.0369748,31.7613445 41.9327731,32.3596639 43.2672269,33.5428571 C44.594958,34.7294118 45.2638655,36.2722689 45.2638655,38.1680672 C45.2638655,38.5613445 45.2168067,39.2537815 45.1260504,40.2420168 C45.0352941,41.2336134 44.8638655,42.1378151 44.6151261,42.9680672 L42.0705882,51.9764706 C41.8621849,52.6991597 41.6773109,53.5260504 41.5092437,54.4504202 C41.3445378,55.3747899 41.2638655,56.0806723 41.2638655,56.5546218 C41.2638655,57.7512605 41.5294118,58.5680672 42.0672269,59.0016807 C42.5983193,59.4352941 43.5294118,59.6537815 44.8470588,59.6537815 C45.4689076,59.6537815 46.1647059,59.5428571 46.9512605,59.3277311 C47.7310924,59.112605 48.2957983,58.9210084 48.6521008,58.7563025 L47.9697479,61.5361345 L47.9697479,61.5361345 Z M47.5193277,24.9714286 C46.3327731,26.0739496 44.9042017,26.6252101 43.2336134,26.6252101 C41.5663866,26.6252101 40.1277311,26.0739496 38.9310924,24.9714286 C37.7411765,23.8689076 37.1394958,22.5277311 37.1394958,20.9613445 C37.1394958,19.3983193 37.7445378,18.0537815 38.9310924,16.9411765 C40.1277311,15.8252101 41.5663866,15.2705882 43.2336134,15.2705882 C44.9042017,15.2705882 46.3361345,15.8252101 47.5193277,16.9411765 C48.7058824,18.0537815 49.3008403,19.3983193 49.3008403,20.9613445 C49.3008403,22.5310924 48.7058824,23.8689076 47.5193277,24.9714286 L47.5193277,24.9714286 Z" id="Shape"></path>
                </g>
            </g>
        </g>
    </g>
</svg>