<svg xmlns="http://www.w3.org/2000/svg" width="34" height="72" viewBox="0 0 34 72"><title>  1</title><desc>  Created with Sketch.</desc><g fill="none"><g fill="#F0F0F0"><path d="M21.1 63.6L21.1 20.9C13.2 27 7.8 30.1 5.1 30.1 3.7 30.1 2.6 29.5 1.6 28.5 0.6 27.4 0 26.2 0 24.9 0 23.3 0.5 22.1 1.5 21.3 2.5 20.6 4.3 19.6 6.8 18.4 10.6 16.7 13.6 14.8 15.9 12.8 18.2 10.8 20.2 8.6 21.9 6.2 23.7 3.8 24.8 2.3 25.4 1.7 25.9 1.1 26.9 0.9 28.4 0.9 30 0.9 31.3 1.5 32.3 2.8 33.3 4.1 33.8 5.8 33.8 8.1L33.8 61.8C33.8 68 31.7 71.2 27.4 71.2 25.5 71.2 24 70.5 22.8 69.3 21.7 68 21.1 66.1 21.1 63.6L21.1 63.6Z"/></g></g></svg>