<svg xmlns="http://www.w3.org/2000/svg" width="49" height="72" viewBox="0 0 49 72"><title>  3</title><desc>  Created with Sketch.</desc><g fill="none"><g fill="#F0F0F0"><path d="M22.3 28.5C25.2 28.5 27.6 27.7 29.7 26 31.8 24.3 32.8 21.9 32.8 18.7 32.8 16.3 32 14.2 30.4 12.5 28.7 10.8 26.5 9.9 23.7 9.9 21.7 9.9 20.2 10.2 18.9 10.7 17.7 11.2 16.7 11.9 16 12.8 15.3 13.7 14.6 14.8 14 16.2 13.3 17.6 12.8 18.9 12.2 20.1 11.9 20.7 11.3 21.2 10.5 21.6 9.7 22 8.8 22.2 7.7 22.2 6.5 22.2 5.3 21.7 4.3 20.7 3.2 19.6 2.7 18.3 2.7 16.6 2.7 15 3.2 13.3 4.2 11.5 5.2 9.7 6.6 8 8.5 6.3 10.4 4.7 12.7 3.4 15.5 2.4 18.4 1.4 21.5 1 25 1 28 1 30.8 1.4 33.3 2.2 35.8 3 37.9 4.2 39.8 5.8 41.6 7.3 43 9.2 44 11.2 44.9 13.3 45.4 15.5 45.4 17.9 45.4 21 44.7 23.7 43.3 25.9 42 28.1 40 30.3 37.5 32.5 39.9 33.8 42 35.3 43.6 37 45.3 38.6 46.6 40.5 47.4 42.6 48.3 44.6 48.7 46.8 48.7 49.2 48.7 52 48.1 54.8 47 57.4 45.8 60.1 44.2 62.5 41.9 64.5 39.7 66.6 37.1 68.2 34 69.4 31 70.6 27.6 71.2 23.9 71.2 20.2 71.2 16.8 70.5 13.9 69.2 10.9 67.8 8.4 66.1 6.5 64.1 4.6 62.1 3.1 60 2.2 57.9 1.2 55.7 0.7 53.9 0.7 52.5 0.7 50.7 1.3 49.2 2.4 48.1 3.6 47 5.1 46.5 6.8 46.5 7.7 46.5 8.5 46.7 9.4 47.2 10.2 47.8 10.7 48.4 11 49.1 12.6 53.4 14.3 56.7 16.2 58.8 18 60.9 20.7 61.9 24 61.9 26 61.9 27.8 61.5 29.6 60.5 31.4 59.6 32.9 58.1 34.1 56.3 35.3 54.4 35.8 52.2 35.8 49.8 35.8 46.1 34.8 43.2 32.8 41.1 30.8 39.1 28.1 38 24.5 38 23.9 38 22.9 38.1 21.6 38.2 20.3 38.3 19.4 38.4 19.1 38.4 17.3 38.4 16 38 15.1 37.1 14.1 36.3 13.7 35.1 13.7 33.5 13.7 32 14.2 30.8 15.4 29.9 16.5 29 18.2 28.5 20.4 28.5L22.3 28.5Z"/></g></g></svg>