<svg xmlns="http://www.w3.org/2000/svg" width="49" height="70" viewBox="0 0 49 70"><title>  2</title><desc>  Created with Sketch.</desc><g fill="none"><g fill="#F0F0F0"><path d="M16.4 58.9L40.9 58.9C43.3 58.9 45.2 59.4 46.5 60.4 47.8 61.4 48.4 62.8 48.4 64.5 48.4 66 47.9 67.3 46.9 68.4 45.9 69.5 44.3 70 42.3 70L7.8 70C5.4 70 3.6 69.4 2.3 68.1 1 66.8 0.3 65.2 0.3 63.5 0.3 62.4 0.7 60.9 1.6 59 2.4 57.1 3.3 55.7 4.3 54.6 8.5 50.3 12.2 46.6 15.6 43.5 18.9 40.5 21.3 38.4 22.8 37.5 25.3 35.7 27.4 33.8 29.1 32 30.9 30.2 32.1 28.3 33 26.4 33.9 24.5 34.4 22.6 34.4 20.7 34.4 18.7 33.9 16.9 32.9 15.4 32 13.8 30.7 12.6 29.1 11.7 27.4 10.8 25.6 10.4 23.7 10.4 19.6 10.4 16.4 12.2 14 15.8 13.7 16.2 13.2 17.5 12.5 19.6 11.7 21.7 10.9 23.3 10 24.4 9.1 25.6 7.7 26.1 5.9 26.1 4.4 26.1 3.1 25.6 2 24.6 1 23.5 0.5 22.1 0.5 20.4 0.5 18.2 1 16 1.9 13.6 2.9 11.3 4.4 9.1 6.3 7.2 8.2 5.3 10.6 3.8 13.6 2.6 16.5 1.4 20 0.9 24 0.9 28.8 0.9 32.8 1.6 36.2 3.1 38.4 4.1 40.3 5.5 42 7.2 43.6 9 44.9 11 45.8 13.3 46.8 15.6 47.2 18 47.2 20.5 47.2 24.3 46.3 27.9 44.3 31 42.4 34.2 40.5 36.7 38.5 38.5 36.5 40.3 33.1 43.1 28.4 46.9 23.7 50.8 20.5 53.8 18.7 55.9 18 56.7 17.2 57.7 16.4 58.9L16.4 58.9Z"/></g></g></svg>