<?xml version="1.0" encoding="UTF-8" standalone="no"?>
<svg width="49px" height="72px" viewBox="0 0 49 72" version="1.1" xmlns="http://www.w3.org/2000/svg" xmlns:xlink="http://www.w3.org/1999/xlink">
    <!-- Generator: Sketch 3.7.2 (28276) - http://www.bohemiancoding.com/sketch -->
    <title>3</title>
    <desc>Created with Sketch.</desc>
    <defs></defs>
    <g id="Page-1" stroke="none" stroke-width="1" fill="none" fill-rule="evenodd">
        <g id="Desktop-HD" transform="translate(-961.000000, -2045.000000)" fill="#F0F0F0">
            <g id="Group-7" transform="translate(176.000000, 2045.000000)">
                <path d="M807.296875,28.515625 C810.171889,28.515625 812.648427,27.6718834 814.726562,25.984375 C816.804698,24.2968666 817.84375,21.8750158 817.84375,18.71875 C817.84375,16.312488 817.015633,14.2421962 815.359375,12.5078125 C813.703117,10.7734288 811.468764,9.90625 808.65625,9.90625 C806.74999,9.90625 805.179694,10.1718723 803.945312,10.703125 C802.710931,11.2343777 801.734379,11.9374956 801.015625,12.8125 C800.296871,13.6875044 799.617191,14.8124931 798.976562,16.1875 C798.335934,17.5625069 797.750003,18.8593689 797.21875,20.078125 C796.906248,20.7343783 796.343754,21.2499981 795.53125,21.625 C794.718746,22.0000019 793.781255,22.1875 792.71875,22.1875 C791.468744,22.1875 790.320318,21.6796926 789.273438,20.6640625 C788.226557,19.6484324 787.703125,18.2968834 787.703125,16.609375 C787.703125,14.9843669 788.195308,13.2734465 789.179688,11.4765625 C790.164067,9.67967852 791.601553,7.96875812 793.492188,6.34375 C795.382822,4.71874188 797.734361,3.41406742 800.546875,2.4296875 C803.359389,1.44530758 806.499983,0.953125 809.96875,0.953125 C813.000015,0.953125 815.765612,1.36718336 818.265625,2.1953125 C820.765638,3.02344164 822.937491,4.21874219 824.78125,5.78125 C826.625009,7.34375781 828.01562,9.15623969 828.953125,11.21875 C829.89063,13.2812603 830.359375,15.4999881 830.359375,17.875 C830.359375,21.0000156 829.679694,23.6796763 828.320312,25.9140625 C826.960931,28.1484487 825.015638,30.3281144 822.484375,32.453125 C824.921887,33.7656316 826.976554,35.2656166 828.648438,36.953125 C830.320321,38.6406334 831.578121,40.5078023 832.421875,42.5546875 C833.265629,44.6015727 833.6875,46.8124881 833.6875,49.1875 C833.6875,52.0312642 833.117193,54.7812367 831.976562,57.4375 C830.835932,60.0937633 829.156261,62.4609271 826.9375,64.5390625 C824.718739,66.6171979 822.085953,68.2421816 819.039062,69.4140625 C815.992172,70.5859434 812.625018,71.171875 808.9375,71.171875 C805.187481,71.171875 801.82814,70.5000067 798.859375,69.15625 C795.89061,67.8124933 793.445322,66.1328226 791.523438,64.1171875 C789.601553,62.1015524 788.148442,60.0156358 787.164062,57.859375 C786.179683,55.7031142 785.6875,53.921882 785.6875,52.515625 C785.6875,50.7031159 786.273432,49.242193 787.445312,48.1328125 C788.617193,47.023432 790.078116,46.46875 791.828125,46.46875 C792.703129,46.46875 793.546871,46.7265599 794.359375,47.2421875 C795.171879,47.7578151 795.703124,48.3749964 795.953125,49.09375 C797.578133,53.4375217 799.320303,56.664052 801.179688,58.7734375 C803.039072,60.882823 805.656233,61.9375 809.03125,61.9375 C810.96876,61.9375 812.835929,61.4609423 814.632812,60.5078125 C816.429696,59.5546827 817.914057,58.1406344 819.085938,56.265625 C820.257818,54.3906156 820.84375,52.2187623 820.84375,49.75 C820.84375,46.0937317 819.84376,43.2265729 817.84375,41.1484375 C815.84374,39.0703021 813.062518,38.03125 809.5,38.03125 C808.874997,38.03125 807.906257,38.0937494 806.59375,38.21875 C805.281243,38.3437506 804.437502,38.40625 804.0625,38.40625 C802.343741,38.40625 801.01563,37.9765668 800.078125,37.1171875 C799.14062,36.2578082 798.671875,35.0625077 798.671875,33.53125 C798.671875,32.0312425 799.234369,30.8203171 800.359375,29.8984375 C801.484381,28.9765579 803.156239,28.515625 805.375,28.515625 L807.296875,28.515625 Z" id="3"></path>
            </g>
        </g>
    </g>
</svg>