<?xml version="1.0" encoding="UTF-8" standalone="no"?>
<svg width="34px" height="72px" viewBox="0 0 34 72" version="1.1" xmlns="http://www.w3.org/2000/svg" xmlns:xlink="http://www.w3.org/1999/xlink">
    <!-- Generator: Sketch 3.7.2 (28276) - http://www.bohemiancoding.com/sketch -->
    <title>1</title>
    <desc>Created with Sketch.</desc>
    <defs></defs>
    <g id="Page-1" stroke="none" stroke-width="1" fill="none" fill-rule="evenodd">
        <g id="Desktop-HD" transform="translate(-176.000000, -2045.000000)" fill="#F0F0F0">
            <g id="Group-7" transform="translate(176.000000, 2045.000000)">
                <path d="M21.09375,63.578125 L21.09375,20.921875 C13.1562103,27.0156555 7.81251375,30.0625 5.0625,30.0625 C3.74999344,30.0625 2.58594258,29.5390677 1.5703125,28.4921875 C0.554682422,27.4453073 0.046875,26.2343819 0.046875,24.859375 C0.046875,23.265617 0.54687,22.0937537 1.546875,21.34375 C2.54688,20.5937463 4.31248734,19.6250059 6.84375,18.4375 C10.6250189,16.6562411 13.6484262,14.7812598 15.9140625,12.8125 C18.1796988,10.8437402 20.1874913,8.64063719 21.9375,6.203125 C23.6875087,3.76561281 24.8281223,2.26562781 25.359375,1.703125 C25.8906277,1.14062219 26.8906177,0.859375 28.359375,0.859375 C30.0156333,0.859375 31.343745,1.49999359 32.34375,2.78125 C33.343755,4.06250641 33.84375,5.82811375 33.84375,8.078125 L33.84375,61.75 C33.84375,68.0312814 31.7031464,71.171875 27.421875,71.171875 C25.5156155,71.171875 23.9843808,70.5312564 22.828125,69.25 C21.6718692,67.9687436 21.09375,66.0781375 21.09375,63.578125 L21.09375,63.578125 Z" id="1"></path>
            </g>
        </g>
    </g>
</svg>