<?xml version="1.0" encoding="UTF-8" standalone="no"?>
<svg width="49px" height="70px" viewBox="0 0 49 70" version="1.1" xmlns="http://www.w3.org/2000/svg" xmlns:xlink="http://www.w3.org/1999/xlink">
    <!-- Generator: Sketch 3.7.2 (28276) - http://www.bohemiancoding.com/sketch -->
    <title>2</title>
    <desc>Created with Sketch.</desc>
    <defs></defs>
    <g id="Page-1" stroke="none" stroke-width="1" fill="none" fill-rule="evenodd">
        <g id="Desktop-HD" transform="translate(-562.000000, -2045.000000)" fill="#F0F0F0">
            <g id="Group-7" transform="translate(176.000000, 2045.000000)">
                <path d="M402.421875,58.9375 L426.890625,58.9375 C429.328137,58.9375 431.187494,59.437495 432.46875,60.4375 C433.750006,61.437505 434.390625,62.7968664 434.390625,64.515625 C434.390625,66.0468827 433.882818,67.3437447 432.867188,68.40625 C431.851557,69.4687553 430.31251,70 428.25,70 L393.75,70 C391.406238,70 389.578132,69.351569 388.265625,68.0546875 C386.953118,66.757806 386.296875,65.2343838 386.296875,63.484375 C386.296875,62.3593694 386.718746,60.8671968 387.5625,59.0078125 C388.406254,57.1484282 389.32812,55.6875053 390.328125,54.625 C394.484396,50.3124784 398.234358,46.6172029 401.578125,43.5390625 C404.921892,40.4609221 407.312493,38.4375048 408.75,37.46875 C411.312513,35.6562409 413.445304,33.8359466 415.148438,32.0078125 C416.851571,30.1796784 418.148433,28.3046971 419.039062,26.3828125 C419.929692,24.4609279 420.375,22.5781342 420.375,20.734375 C420.375,18.734365 419.898442,16.9453204 418.945312,15.3671875 C417.992183,13.7890546 416.695321,12.5625044 415.054688,11.6875 C413.414054,10.8124956 411.62501,10.375 409.6875,10.375 C405.59373,10.375 402.375012,12.171857 400.03125,15.765625 C399.718748,16.2343773 399.195316,17.5156145 398.460938,19.609375 C397.726559,21.7031355 396.898442,23.3124944 395.976562,24.4375 C395.054683,25.5625056 393.703134,26.125 391.921875,26.125 C390.359367,26.125 389.062505,25.6093802 388.03125,24.578125 C386.999995,23.5468698 386.484375,22.1406339 386.484375,20.359375 C386.484375,18.2031142 386.968745,15.9531367 387.9375,13.609375 C388.906255,11.2656133 390.351553,9.14063453 392.273438,7.234375 C394.195322,5.32811547 396.632798,3.78906836 399.585938,2.6171875 C402.539077,1.44530664 405.99998,0.859375 409.96875,0.859375 C414.750024,0.859375 418.828108,1.6093675 422.203125,3.109375 C424.390636,4.10938 426.312492,5.48436625 427.96875,7.234375 C429.625008,8.98438375 430.914058,11.007801 431.835938,13.3046875 C432.757817,15.601574 433.21875,17.9843627 433.21875,20.453125 C433.21875,24.3281444 432.257822,27.8515466 430.335938,31.0234375 C428.414053,34.1953284 426.453135,36.6796785 424.453125,38.4765625 C422.453115,40.2734465 419.101586,43.0937308 414.398438,46.9375 C409.695289,50.7812692 406.468759,53.7656144 404.71875,55.890625 C403.968746,56.7343792 403.203129,57.7499941 402.421875,58.9375 L402.421875,58.9375 Z" id="2"></path>
            </g>
        </g>
    </g>
</svg>