<?xml version="1.0" encoding="UTF-8" standalone="no"?>
<svg width="189px" height="235px" viewBox="0 0 189 235" version="1.1" xmlns="http://www.w3.org/2000/svg" xmlns:xlink="http://www.w3.org/1999/xlink">
    <!-- Generator: Sketch 3.7.2 (28276) - http://www.bohemiancoding.com/sketch -->
    <title>Group 8</title>
    <desc>Created with Sketch.</desc>
    <defs>
        <rect id="path-1" x="0" y="0" width="160" height="211.2" rx="5"></rect>
        <filter x="-50%" y="-50%" width="200%" height="200%" filterUnits="objectBoundingBox" id="filter-2">
            <feOffset dx="0" dy="2" in="SourceAlpha" result="shadowOffsetOuter1"></feOffset>
            <feGaussianBlur stdDeviation="2" in="shadowOffsetOuter1" result="shadowBlurOuter1"></feGaussianBlur>
            <feColorMatrix values="0 0 0 0 0   0 0 0 0 0   0 0 0 0 0  0 0 0 0.5 0" type="matrix" in="shadowBlurOuter1"></feColorMatrix>
        </filter>
        <rect id="path-3" x="0" y="0" width="160" height="211.2" rx="5"></rect>
        <filter x="-50%" y="-50%" width="200%" height="200%" filterUnits="objectBoundingBox" id="filter-4">
            <feOffset dx="0" dy="2" in="SourceAlpha" result="shadowOffsetOuter1"></feOffset>
            <feGaussianBlur stdDeviation="2" in="shadowOffsetOuter1" result="shadowBlurOuter1"></feGaussianBlur>
            <feColorMatrix values="0 0 0 0 0   0 0 0 0 0   0 0 0 0 0  0 0 0 0.5 0" type="matrix" in="shadowBlurOuter1"></feColorMatrix>
        </filter>
    </defs>
    <g id="Page-1" stroke="none" stroke-width="1" fill="none" fill-rule="evenodd">
        <g id="Desktop-HD" transform="translate(-874.000000, -1437.000000)">
            <g id="Group-8" transform="translate(877.000000, 1439.000000)">
                <g id="Group-5" transform="translate(91.000000, 113.600000) rotate(-6.000000) translate(-91.000000, -113.600000) translate(11.000000, 8.000000)">
                    <g id="Rectangle-5">
                        <use fill="black" fill-opacity="1" filter="url(#filter-2)" xlink:href="#path-1"></use>
                        <use fill="#FFFFFF" fill-rule="evenodd" xlink:href="#path-1"></use>
                    </g>
                    <g id="Group-4" transform="translate(17.600000, 15.200000)">
                        <g id="Group-3" transform="translate(48.800000, 9.600000)" fill="#F0F0F0">
                            <rect id="Rectangle-6" x="0" y="0" width="76" height="8"></rect>
                            <rect id="Rectangle-6-Copy" x="0" y="12" width="52" height="8"></rect>
                        </g>
                        <g id="Group-3-Copy" transform="translate(48.800000, 80.800000)" fill="#F0F0F0">
                            <rect id="Rectangle-6" x="0" y="0" width="76" height="8"></rect>
                            <rect id="Rectangle-6-Copy" x="0" y="12" width="52" height="8"></rect>
                        </g>
                        <g id="Group-3-Copy-2" transform="translate(48.800000, 151.200000)" fill="#F0F0F0">
                            <rect id="Rectangle-6" x="0" y="0" width="76" height="8"></rect>
                            <rect id="Rectangle-6-Copy" x="0" y="12" width="52" height="8"></rect>
                        </g>
                        <g id="checking" fill="#3CC364">
                            <g id="Capa_1">
                                <path d="M20,0 C8.95429688,0 0,8.95429687 0,20 C0,31.0457031 8.95429688,40 20,40 C31.0457031,40 40,31.0457031 40,20 C40,8.95429687 31.0457031,0 20,0 L20,0 Z M16.25,32.5 L7.96875,21.71875 L11.640625,17.890625 L16.25,23.75 L30.703125,11.953125 L32.5,13.75 L16.25,32.5 L16.25,32.5 Z" id="Shape"></path>
                            </g>
                        </g>
                        <g id="checking-copy" transform="translate(0.000000, 70.400000)" fill="#3CC364">
                            <g id="Capa_1">
                                <path d="M20,0 C8.95429688,0 0,8.95429687 0,20 C0,31.0457031 8.95429688,40 20,40 C31.0457031,40 40,31.0457031 40,20 C40,8.95429687 31.0457031,0 20,0 L20,0 Z M16.25,32.5 L7.96875,21.71875 L11.640625,17.890625 L16.25,23.75 L30.703125,11.953125 L32.5,13.75 L16.25,32.5 L16.25,32.5 Z" id="Shape"></path>
                            </g>
                        </g>
                        <g id="checking-copy-2" transform="translate(0.000000, 140.800000)" fill="#3CC364">
                            <g id="Capa_1">
                                <path d="M20,0 C8.95429688,0 0,8.95429687 0,20 C0,31.0457031 8.95429688,40 20,40 C31.0457031,40 40,31.0457031 40,20 C40,8.95429688 31.0457031,0 20,0 L20,0 Z M16.25,32.5 L7.96875,21.71875 L11.640625,17.890625 L16.25,23.75 L30.703125,11.953125 L32.5,13.75 L16.25,32.5 L16.25,32.5 Z" id="Shape"></path>
                            </g>
                        </g>
                    </g>
                </g>
                <g id="Group-5-Copy" transform="translate(91.000000, 113.600000) rotate(-354.000000) translate(-91.000000, -113.600000) translate(11.000000, 8.000000)">
                    <g id="Rectangle-5">
                        <use fill="black" fill-opacity="1" filter="url(#filter-4)" xlink:href="#path-3"></use>
                        <use fill="#FFFFFF" fill-rule="evenodd" xlink:href="#path-3"></use>
                    </g>
                    <g id="Group-4" transform="translate(17.600000, 15.200000)">
                        <g id="Group-3" transform="translate(48.800000, 9.600000)" fill="#F0F0F0">
                            <rect id="Rectangle-6" x="0" y="0" width="76" height="8"></rect>
                            <rect id="Rectangle-6-Copy" x="0" y="12" width="52" height="8"></rect>
                        </g>
                        <g id="Group-3-Copy" transform="translate(48.800000, 80.800000)" fill="#F0F0F0">
                            <rect id="Rectangle-6" x="0" y="0" width="76" height="8"></rect>
                            <rect id="Rectangle-6-Copy" x="0" y="12" width="52" height="8"></rect>
                        </g>
                        <g id="Group-3-Copy-2" transform="translate(48.800000, 151.200000)" fill="#F0F0F0">
                            <rect id="Rectangle-6" x="0" y="0" width="76" height="8"></rect>
                            <rect id="Rectangle-6-Copy" x="0" y="12" width="52" height="8"></rect>
                        </g>
                        <g id="checking" fill="#3CC364">
                            <g id="Capa_1">
                                <path d="M20,0 C8.95429688,0 0,8.95429687 0,20 C0,31.0457031 8.95429688,40 20,40 C31.0457031,40 40,31.0457031 40,20 C40,8.95429687 31.0457031,0 20,0 L20,0 Z M16.25,32.5 L7.96875,21.71875 L11.640625,17.890625 L16.25,23.75 L30.703125,11.953125 L32.5,13.75 L16.25,32.5 L16.25,32.5 Z" id="Shape"></path>
                            </g>
                        </g>
                        <g id="checking-copy" transform="translate(0.000000, 70.400000)" fill="#3CC364">
                            <g id="Capa_1">
                                <path d="M20,0 C8.95429688,0 0,8.95429687 0,20 C0,31.0457031 8.95429688,40 20,40 C31.0457031,40 40,31.0457031 40,20 C40,8.95429687 31.0457031,0 20,0 L20,0 Z M16.25,32.5 L7.96875,21.71875 L11.640625,17.890625 L16.25,23.75 L30.703125,11.953125 L32.5,13.75 L16.25,32.5 L16.25,32.5 Z" id="Shape"></path>
                            </g>
                        </g>
                        <g id="checking-copy-2" transform="translate(0.000000, 140.800000)" fill="#3CC364">
                            <g id="Capa_1">
                                <path d="M20,0 C8.95429688,0 0,8.95429687 0,20 C0,31.0457031 8.95429688,40 20,40 C31.0457031,40 40,31.0457031 40,20 C40,8.95429688 31.0457031,0 20,0 L20,0 Z M16.25,32.5 L7.96875,21.71875 L11.640625,17.890625 L16.25,23.75 L30.703125,11.953125 L32.5,13.75 L16.25,32.5 L16.25,32.5 Z" id="Shape"></path>
                            </g>
                        </g>
                    </g>
                </g>
            </g>
        </g>
    </g>
</svg>