<?xml version="1.0" encoding="UTF-8"?>
<svg width="80px" height="80px" viewBox="0 0 80 80" version="1.1" xmlns="http://www.w3.org/2000/svg" xmlns:xlink="http://www.w3.org/1999/xlink">
    <!-- Generator: Sketch 51.1 (57501) - http://www.bohemiancoding.com/sketch -->
    <title>rocket</title>
    <desc>Created with Sketch.</desc>
    <defs></defs>
    <g id="Page-1" stroke="none" stroke-width="1" fill="none" fill-rule="evenodd">
        <g id="Desktop-HD-Copy" transform="translate(-310.000000, -378.000000)">
            <g id="ambition" transform="translate(310.000000, 324.000000)">
                <g id="rocket" transform="translate(0.000000, 54.000000)">
                    <path d="M40,0 C17.90875,0 0,17.90875 0,40 C0,62.0920313 17.90875,80 40,80 C62.0904687,80 80,62.0920313 80,40 C80,17.90875 62.0904687,0 40,0 L40,0 Z" id="moon-bg" fill="#30576B"></path>
                    <g id="stars" transform="translate(10.640394, 12.413793)">
                        <path d="M7.27171721,0.0724984606 C6.79171721,4.39093596 4.39171721,6.79171721 0.0717172106,7.27249846 C4.39171721,7.75249846 6.79171721,10.1532797 7.27171721,14.4724985 C7.75171721,10.1532797 10.1524985,7.75249846 14.4724985,7.27249846 C10.1524985,6.79171721 7.75171721,4.39093596 7.27171721,0.0724984606 L7.27171721,0.0724984606 Z M46.9596059,46.7877694 C46.5860122,50.1462069 44.7203872,52.0133944 41.3596059,52.3877694 C44.7203872,52.7605819 46.5860122,54.6277694 46.9596059,57.9877694 C47.3331997,54.6277694 49.2003872,52.7605819 52.5611684,52.3877694 C49.2003872,52.0133944 47.3331997,50.1462069 46.9596059,46.7877694 L46.9596059,46.7877694 Z" id="Shape" fill="#EFC75E"></path>
                        <path d="M60.5596059,23.5869881 C60.2939809,25.9862069 58.9596059,27.3205819 56.5596059,27.5877694 C58.9596059,27.8533944 60.2939809,29.1877694 60.5596059,31.5869881 C60.8267934,29.1877694 62.1596059,27.8533944 64.5596059,27.5877694 C62.1596059,27.3205819 60.8267934,25.9862069 60.5596059,23.5869881 L60.5596059,23.5869881 Z M4.55960591,21.9862069 C4.34601216,23.9054256 3.27960591,24.9733944 1.35960591,25.1862069 C3.27960591,25.3998006 4.34601216,26.4669881 4.55960591,28.3862069 C4.77319966,26.4677694 5.83960591,25.4005819 7.75960591,25.1862069 C5.84038716,24.9733944 4.77319966,23.9054256 4.55960591,21.9862069 L4.55960591,21.9862069 Z M26.9596059,44.3862069 C26.6931997,46.7862069 25.3596059,48.1205819 22.9596059,48.3869881 C25.3596059,48.6533944 26.6931997,49.9877694 26.9596059,52.3869881 C27.2260122,49.9877694 28.5596059,48.6533944 30.9596059,48.3869881 C28.5596059,48.1205819 27.2267934,46.7862069 26.9596059,44.3862069 L26.9596059,44.3862069 Z" id="Shape" fill="#5B717C"></path>
                    </g>
                    <g id="launcher" transform="translate(26.009852, 5.123153)">
                        <path d="M15.2148607,34.4304156 C17.3397044,36.5583844 17.3397044,40.0104156 15.2148607,42.1383844 C13.0900169,44.2679156 6.89798568,47.0215094 4.77329818,44.8919781 C2.64845443,42.7624469 5.39642318,36.5583844 7.52126693,34.4304156 C9.64611068,32.3008844 13.0901732,32.3008844 15.2148607,34.4304156 L15.2148607,34.4304156 L15.2148607,34.4304156 Z" id="Shape" fill="#EFC75E"></path>
                        <path d="M8.82923568,33.4632281 L8.81970443,33.6472906 C8.81970443,37.6232281 12.0437669,40.8472906 16.0197044,40.8472906 L16.1740794,40.8393219 C17.2661107,38.7793219 16.9476732,36.1649469 15.2148607,34.4297906 C13.4853294,32.6977594 10.8837669,32.3752594 8.82923568,33.4632281 L8.82923568,33.4632281 Z" id="Shape" fill="#DEB957"></path>
                        <path d="M26.3853294,22.4808844 C32.8997044,28.9960406 34.2037669,38.2544781 28.0132982,44.4457281 L25.0901732,47.3697906 C18.8997044,53.5593219 23.1870482,38.7097906 16.6717357,32.1946344 C10.1573607,25.6794781 -4.69310807,29.9666656 1.49814193,23.7761969 L4.42220443,20.8521344 C10.6125169,14.6624469 19.8692357,15.9665094 26.3853294,22.4808844 L26.3853294,22.4808844 L26.3853294,22.4808844 Z" id="Shape" fill="#F26C4F"></path>
                        <path d="M47.9932982,0.87369689 C49.9732982,2.85369689 49.1028294,15.4072906 36.9309544,27.5801031 C29.0037669,35.5065094 23.9965794,38.2793219 23.9965794,38.2793219 C18.6950169,41.8393219 16.1309544,39.4080719 12.7950169,36.0721344 C9.43501693,32.7113531 6.97736068,30.1690094 10.5878294,24.8705719 C10.5878294,24.8705719 13.3982982,19.8265094 21.2878294,11.9369781 C33.4492357,-0.22630311 46.0053294,-1.11349061 47.9932982,0.87369689 L47.9932982,0.87369689 L47.9932982,0.87369689 Z" id="Shape" fill="#F4F0D3"></path>
                        <path d="M32.0028294,21.0393219 C30.8812669,21.0393219 29.8259544,20.6024469 29.0323607,19.8088531 C27.3947044,18.1711969 27.3964232,15.5065094 29.0323607,13.8688531 C29.8259544,13.0760406 30.8811107,12.6393219 32.0028294,12.6393219 C33.1245482,12.6393219 34.1797044,13.0761969 34.9732982,13.8688531 C35.7668919,14.6624469 36.2028294,15.7176031 36.2028294,16.8393219 C36.2028294,17.9608844 35.7668919,19.0161969 34.9732982,19.8088531 C34.1797044,20.6016656 33.1245482,21.0393219 32.0028294,21.0393219 L32.0028294,21.0393219 Z" id="Shape" fill="#8BA0AB"></path>
                        <path d="M32.0028294,13.2393219 C32.9636107,13.2393219 33.8684544,13.6136969 34.5484544,14.2929156 C35.2300169,14.9736969 35.6028294,15.8769781 35.6028294,16.8393219 C35.6028294,17.8008844 35.2292357,18.7049469 34.5484544,19.3849469 C33.8684544,20.0649469 32.9643919,20.4393219 32.0028294,20.4393219 C31.0404857,20.4393219 30.1372044,20.0649469 29.4572044,19.3849469 C28.0540794,17.9818219 28.0540794,15.6969781 29.4572044,14.2929156 C30.1364232,13.6136969 31.0397044,13.2393219 32.0028294,13.2393219 L32.0028294,13.2393219 Z M32.0028294,12.0393219 C30.7748607,12.0393219 29.5451732,12.5072906 28.6092357,13.4449469 C26.7340794,15.3201031 26.7340794,18.3593219 28.6092357,20.2336969 C29.5451732,21.1705719 30.7748607,21.6393219 32.0028294,21.6393219 C33.2307982,21.6393219 34.4587669,21.1705719 35.3964232,20.2336969 C37.2715794,18.3593219 37.2715794,15.3201031 35.3964232,13.4449469 C34.4589232,12.5080719 33.2309544,12.0393219 32.0028294,12.0393219 L32.0028294,12.0393219 Z" id="Shape" fill="#324D5B"></path>
                        <path d="M36.4579975,1.77665808 C36.4579975,1.77665808 38.2083152,6.47809776 40.3201902,8.58700401 C42.4320652,10.6959103 47.0879261,12.4105387 47.0879261,12.4105387 C49.2848011,6.5505387 49.1061107,1.98807189 47.9925169,0.87369689 C46.9084544,-0.21036561 42.6725169,-0.43349061 37.0725169,1.56010314 L36.4579975,1.77665808 Z" id="Shape" fill="#F26C4F"></path>
                        <path d="M26.4381419,36.6521344 C20.8540794,40.4026031 18.1525169,37.8416656 14.6397044,34.3272906 C11.0997044,30.7880719 8.51017318,28.1096344 12.3132982,22.5272906 C12.3132982,22.5272906 12.6861107,21.8624469 13.5156419,20.6593219 C11.4428294,23.3401031 10.5861107,24.8705719 10.5861107,24.8705719 C6.97564193,30.1697906 9.43329818,32.7121344 12.7932982,36.0721344 C16.1292357,39.4080719 18.6932982,41.8393219 23.9948607,38.2793219 C23.9948607,38.2793219 24.9179857,37.7657281 26.5900169,36.5624469 L26.4381419,36.6521344 L26.4381419,36.6521344 Z" id="Shape" fill="#DAD3AF"></path>
                        <path d="M24.5773607,25.0888531 C25.5332982,26.0440094 23.7181419,29.4088531 19.0989232,34.0272906 C14.4804857,38.6457281 11.6932982,39.8849469 10.7365794,38.9296344 C9.78142318,37.9744781 11.0206419,35.1855719 15.6389232,30.5672906 C20.2572044,25.9490094 23.6228294,24.1329156 24.5773607,25.0888531 L24.5773607,25.0888531 Z" id="Shape" fill="#F26C4F"></path>
                    </g>
                </g>
            </g>
        </g>
    </g>
</svg>